# Blender v2.79 (sub 0) OBJ File: 'brambleBodySkeleton.blend'
# www.blender.org
mtllib brambleBodySkeleton.mtl
o Circle
v -0.006607 0.009818 -1.808045
v -0.506607 0.009818 -1.674070
v -0.872632 0.009818 -0.955982
v -1.006607 0.009818 -0.217202
v -0.872632 0.009818 0.502854
v -0.506607 0.009818 1.100317
v -0.006607 0.009818 1.234291
v 0.493393 0.009818 1.100317
v 0.859419 0.009818 0.502854
v 0.993393 0.009818 -0.217202
v 0.859419 0.009818 -0.955982
v 0.493394 0.009818 -1.674070
v -0.506607 0.920812 -1.062294
v -0.006607 0.920812 -1.196269
v -0.872632 0.920812 -0.644675
v -1.006607 0.920812 0.002854
v -0.872632 0.920812 0.502854
v -0.506607 0.920812 0.943857
v -0.006607 0.920812 1.077832
v 0.493393 0.920812 0.943857
v 0.859419 0.920812 0.502854
v 0.993393 0.920812 0.002854
v 0.859419 0.920812 -0.644675
v 0.493394 0.920812 -1.062294
v -0.506607 1.809025 -0.863172
v -0.006607 1.809025 -0.997146
v -0.872632 1.809025 -0.497146
v -1.006607 1.809025 0.002854
v -0.872632 1.809025 0.502854
v -0.506607 1.809025 0.868879
v -0.006607 1.809025 1.002854
v 0.493393 1.809025 0.868879
v 0.859419 1.809025 0.502854
v 0.993393 1.809025 0.002854
v 0.859419 1.809025 -0.497146
v 0.493394 1.809025 -0.863171
v -0.506607 2.674405 -0.863172
v -0.006607 2.674405 -0.997146
v -0.872632 2.674405 -0.497146
v -1.006607 2.674405 0.002854
v -0.872632 2.674405 0.502854
v -0.506607 2.674405 0.868879
v -0.006607 2.674405 1.002854
v 0.493393 2.674405 0.868879
v 0.859419 2.674405 0.502854
v 0.993393 2.674405 0.002854
v 0.859419 2.674405 -0.497146
v 0.493394 2.674405 -0.863171
v -0.470559 3.017674 -0.800735
v -0.006607 3.017674 -0.925051
v -0.810196 3.017674 -0.461099
v -0.934511 3.017674 0.002854
v -0.810196 3.017674 0.466806
v -0.470559 3.017674 0.806443
v -0.006607 3.017674 0.930758
v 0.457346 3.017674 0.806443
v 0.796982 3.017674 0.466806
v 0.921298 3.017674 0.002854
v 0.796983 3.017674 -0.461098
v 0.457346 3.017674 -0.800735
v -0.332550 3.329574 -0.561696
v -0.006607 3.329574 -0.649033
v -0.571157 3.329574 -0.323089
v -0.658493 3.329574 0.002854
v -0.571157 3.329574 0.328797
v -0.332550 3.329574 0.567404
v -0.006607 3.329574 0.654740
v 0.319336 3.329574 0.567404
v 0.557943 3.329574 0.328797
v 0.645280 3.329574 0.002854
v 0.557944 3.329574 -0.323089
v 0.319337 3.329574 -0.561696
v -0.028086 3.526016 -0.034350
v -0.006607 3.526016 -0.040105
v -0.043810 3.526016 -0.018626
v -0.049566 3.526016 0.002854
v -0.043810 3.526016 0.024333
v -0.028086 3.526016 0.040057
v -0.006607 3.526016 0.045813
v 0.014873 3.526016 0.040057
v 0.030597 3.526016 0.024333
v 0.036353 3.526016 0.002854
v 0.030597 3.526016 -0.018626
v 0.014873 3.526016 -0.034350
vn 0.0000 -1.0000 -0.0000
vn 0.2530 0.2116 -0.9440
vn 0.2553 0.1637 0.9529
vn -0.9764 -0.0259 0.2144
vn 0.8105 0.2647 -0.5225
vn -0.2171 0.5442 -0.8104
vn 0.8163 0.0494 0.5755
vn -0.8163 0.0494 0.5755
vn 0.2171 0.5442 -0.8104
vn -0.8105 0.2647 -0.5225
vn 0.9764 -0.0259 0.2144
vn -0.2553 0.1637 0.9529
vn -0.9803 0.0553 -0.1895
vn 0.9803 0.0553 -0.1895
vn -0.7071 -0.0000 0.7071
vn -0.7244 0.1320 -0.6767
vn 0.9659 0.0000 0.2588
vn -0.2580 0.0813 0.9627
vn -0.9736 0.0189 -0.2273
vn 0.9736 0.0189 -0.2273
vn 0.2580 0.0813 0.9627
vn -0.9659 0.0000 0.2588
vn 0.7244 0.1320 -0.6767
vn -0.2530 0.2116 -0.9440
vn 0.7404 0.0283 0.6716
vn -0.7404 0.0283 0.6716
vn -0.6930 0.1988 0.6930
vn 0.2588 0.0000 -0.9659
vn -0.7071 -0.0000 -0.7071
vn -0.2588 -0.0000 0.9659
vn -0.9659 0.0000 -0.2588
vn 0.9659 0.0000 -0.2588
vn 0.2588 0.0000 0.9659
vn 0.7071 0.0000 -0.7071
vn -0.2588 -0.0000 -0.9659
vn 0.7071 0.0000 0.7071
vn 0.5375 0.6498 0.5375
vn 0.2537 0.1988 -0.9466
vn -0.6930 0.1988 -0.6930
vn 0.9466 0.1988 0.2537
vn -0.2537 0.1988 0.9466
vn -0.9466 0.1988 -0.2537
vn 0.9466 0.1988 -0.2537
vn 0.2537 0.1988 0.9466
vn -0.9466 0.1988 0.2537
vn 0.6930 0.1988 -0.6930
vn -0.2537 0.1988 -0.9466
vn 0.6930 0.1988 0.6930
vn -0.0820 0.9485 -0.3060
vn -0.5375 0.6498 0.5375
vn 0.1967 0.6498 -0.7342
vn -0.5375 0.6498 -0.5375
vn 0.7342 0.6498 0.1967
vn -0.1967 0.6498 0.7342
vn -0.7342 0.6498 -0.1967
vn 0.7342 0.6498 -0.1967
vn 0.1967 0.6498 0.7342
vn -0.7342 0.6498 0.1967
vn 0.5375 0.6498 -0.5375
vn -0.1967 0.6498 -0.7342
vn 0.0000 1.0000 -0.0000
vn 0.2240 0.9485 0.2240
vn -0.2240 0.9485 0.2240
vn 0.0820 0.9485 -0.3060
vn -0.2240 0.9485 -0.2240
vn 0.3060 0.9485 0.0820
vn -0.0820 0.9485 0.3060
vn -0.3060 0.9485 -0.0820
vn 0.3060 0.9485 -0.0820
vn 0.0820 0.9485 0.3060
vn -0.3060 0.9485 0.0820
vn 0.2240 0.9485 -0.2240
usemtl None
s off
f 2//1 1//1 12//1 11//1 10//1 9//1 8//1 7//1 6//1 5//1 4//1 3//1
f 24//2 14//2 26//2 36//2
f 7//3 8//3 20//3 19//3
f 4//4 5//4 17//4 16//4
f 11//5 12//5 24//5 23//5
f 1//6 2//6 13//6 14//6
f 8//7 9//7 21//7 20//7
f 5//8 6//8 18//8 17//8
f 12//9 1//9 14//9 24//9
f 2//10 3//10 15//10 13//10
f 9//11 10//11 22//11 21//11
f 6//12 7//12 19//12 18//12
f 3//13 4//13 16//13 15//13
f 10//14 11//14 23//14 22//14
f 29//15 30//15 42//15 41//15
f 13//16 15//16 27//16 25//16
f 21//17 22//17 34//17 33//17
f 18//18 19//18 31//18 30//18
f 15//19 16//19 28//19 27//19
f 22//20 23//20 35//20 34//20
f 19//21 20//21 32//21 31//21
f 16//22 17//22 29//22 28//22
f 23//23 24//23 36//23 35//23
f 14//24 13//24 25//24 26//24
f 20//25 21//25 33//25 32//25
f 17//26 18//26 30//26 29//26
f 41//27 42//27 54//27 53//27
f 36//28 26//28 38//28 48//28
f 25//29 27//29 39//29 37//29
f 33//17 34//17 46//17 45//17
f 30//30 31//30 43//30 42//30
f 27//31 28//31 40//31 39//31
f 34//32 35//32 47//32 46//32
f 31//33 32//33 44//33 43//33
f 28//22 29//22 41//22 40//22
f 35//34 36//34 48//34 47//34
f 26//35 25//35 37//35 38//35
f 32//36 33//36 45//36 44//36
f 56//37 57//37 69//37 68//37
f 48//38 38//38 50//38 60//38
f 37//39 39//39 51//39 49//39
f 45//40 46//40 58//40 57//40
f 42//41 43//41 55//41 54//41
f 39//42 40//42 52//42 51//42
f 46//43 47//43 59//43 58//43
f 43//44 44//44 56//44 55//44
f 40//45 41//45 53//45 52//45
f 47//46 48//46 60//46 59//46
f 38//47 37//47 49//47 50//47
f 44//48 45//48 57//48 56//48
f 62//49 61//49 73//49 74//49
f 53//50 54//50 66//50 65//50
f 60//51 50//51 62//51 72//51
f 49//52 51//52 63//52 61//52
f 57//53 58//53 70//53 69//53
f 54//54 55//54 67//54 66//54
f 51//55 52//55 64//55 63//55
f 58//56 59//56 71//56 70//56
f 55//57 56//57 68//57 67//57
f 52//58 53//58 65//58 64//58
f 59//59 60//59 72//59 71//59
f 50//60 49//60 61//60 62//60
f 73//61 75//61 76//61 77//61 78//61 79//61 80//61 81//61 82//61 83//61 84//61 74//61
f 68//62 69//62 81//62 80//62
f 65//63 66//63 78//63 77//63
f 72//64 62//64 74//64 84//64
f 61//65 63//65 75//65 73//65
f 69//66 70//66 82//66 81//66
f 66//67 67//67 79//67 78//67
f 63//68 64//68 76//68 75//68
f 70//69 71//69 83//69 82//69
f 67//70 68//70 80//70 79//70
f 64//71 65//71 77//71 76//71
f 71//72 72//72 84//72 83//72
