# Blender v2.79 (sub 0) OBJ File: 'brambleArm.blend'
# www.blender.org
mtllib brambleArm.mtl
o Cube
v 0.245861 -0.727236 -0.831434
v -0.000000 0.000000 1.000000
v -0.245860 -0.727236 -1.168567
v 0.245860 0.660923 -0.831433
v -0.245860 0.660923 -1.168566
v 1.144507 -1.067797 -1.883479
v 0.411515 -1.067797 -2.386032
v 1.144507 1.001485 -1.883478
v 0.411515 1.001485 -2.386032
v 0.994610 -0.927599 -1.771331
v 0.360942 -0.927599 -2.205786
v 0.994610 0.861287 -1.771330
v 0.360941 0.861287 -2.205786
v 0.994610 -0.927599 -1.771331
v 0.360942 -0.927599 -2.205786
v 0.994610 0.861287 -1.771330
v 0.360941 0.861287 -2.205786
vn -0.2281 -0.9150 0.3327
vn -0.2103 0.9283 0.3068
vn 0.9911 0.0000 0.1331
vn -0.9936 -0.0000 0.1127
vn -0.8799 -0.0000 -0.4751
vn 0.9628 0.0000 0.2701
vn -0.1359 -0.9707 0.1982
vn -0.1359 0.9707 0.1982
vn 0.7604 -0.0000 0.6495
vn 0.0000 0.0000 1.0000
vn 0.3508 0.7843 -0.5116
vn 0.3508 -0.7843 -0.5116
vn -0.5991 0.0000 -0.8007
vn 0.5655 0.0000 -0.8248
usemtl Material
s off
f 1//1 2//1 3//1
f 4//2 5//2 2//2
f 1//3 4//3 2//3
f 2//4 5//4 3//4
f 3//5 5//5 9//5 7//5
f 7//6 9//6 13//6 11//6
f 1//7 3//7 7//7 6//7
f 5//8 4//8 8//8 9//8
f 4//9 1//9 6//9 8//9
f 10//10 11//10 15//10 14//10
f 6//11 7//11 11//11 10//11
f 9//12 8//12 12//12 13//12
f 8//13 6//13 10//13 12//13
f 16//14 14//14 15//14 17//14
f 13//10 12//10 16//10 17//10
f 12//10 10//10 14//10 16//10
f 11//10 13//10 17//10 15//10
